PathFileType	4	(X/Y/Z)	RBDS013static.trc
DataRate	CameraRate	NumFrames	NumMarkers	Units	OrigDataRate	OrigDataStartFrame	OrigNumFrames
150.000000	150.000000	4	48	mm	150.000000	37	150
Frame#	Time	L.Ankle			L.Ankle.Medial			L.ASIS			L.GTR			L.Heel.Bottom			L.Heel.Lateral			L.Heel.Top			L.HF			L.Iliac.Crest			L.Knee			L.Knee.Medial			L.MT1			L.MT2			L.MT5			L.PSIS			L.Shank.Bottom.Lateral			L.Shank.Bottom.Medial			L.Shank.Top.Lateral			L.Shank.Top.Medial			L.Thigh.Bottom.Lateral			L.Thigh.Bottom.Medial			L.Thigh.Top.Lateral			L.Thigh.Top.Medial			L.TT			R.Ankle			R.Ankle.Medial			R.ASIS			R.GTR			R.Heel.Bottom			R.Heel.Lateral			R.Heel.Top			R.HF			R.Iliac.Crest			R.Knee			R.Knee.Medial			R.MT1			R.MT2			R.MT5			R.PSIS			R.Shank.Bottom.Lateral			R.Shank.Bottom.Medial			R.Shank.Top.Lateral			R.Shank.Top.Medial			R.Thigh.Bottom.Lateral			R.Thigh.Bottom.Medial			R.Thigh.Top.Lateral			R.Thigh.Top.Medial			R.TT			
		X1	Y1	Z1	X2	Y2	Z2	X3	Y3	Z3	X4	Y4	Z4	X5	Y5	Z5	X6	Y6	Z6	X7	Y7	Z7	X8	Y8	Z8	X9	Y9	Z9	X10	Y10	Z10	X11	Y11	Z11	X12	Y12	Z12	X13	Y13	Z13	X14	Y14	Z14	X15	Y15	Z15	X16	Y16	Z16	X17	Y17	Z17	X18	Y18	Z18	X19	Y19	Z19	X20	Y20	Z20	X21	Y21	Z21	X22	Y22	Z22	X23	Y23	Z23	X24	Y24	Z24	X25	Y25	Z25	X26	Y26	Z26	X27	Y27	Z27	X28	Y28	Z28	X29	Y29	Z29	X30	Y30	Z30	X31	Y31	Z31	X32	Y32	Z32	X33	Y33	Z33	X34	Y34	Z34	X35	Y35	Z35	X36	Y36	Z36	X37	Y37	Z37	X38	Y38	Z38	X39	Y39	Z39	X40	Y40	Z40	X41	Y41	Z41	X42	Y42	Z42	X43	Y43	Z43	X44	Y44	Z44	X45	Y45	Z45	X46	Y46	Z46	X47	Y47	Z47	X48	Y48	Z48	

38	0.2466666666666667	705.7498779296875	102.7315826416016	1048.581298828125	723.5491943359375	115.4801025390625	1129.877075195313	814.171875	938.4907836914063	1112.255737304688	735.5984497070313	849.6586303710938	1064.990356445313	632.9287109375	40.13424682617188	1092.483276367188	656.3894653320313	64.24897003173828	1051.220458984375	641.6641235351563	87.38493347167969	1091.978637695313	742.6740112304688	437.4586486816406	1058.150146484375	756.9428100585938	1002.138305664063	1082.20068359375	745.651123046875	493.7615356445313	1062.17822265625	736.9199829101563	479.5592346191406	1183.420043945313	842.2476196289063	60.07080078125	1128.585205078125	853.8855590820313	71.81450653076172	1086.10595703125	814.5509033203125	44.33949661254883	1020.454345703125	653.0557861328125	973.6434936523438	1185.021606445313	702.0017700195313	176.7425994873047	1044.661010742188	661.0771484375	176.5886383056641	1081.89453125	694.7684936523438	257.0766296386719	1038.780517578125	656.121826171875	257.5008850097656	1076.207153320313	764.3174438476563	592.8602905273438	1045.390014648438	698.5191650390625	590.038818359375	1077.550903320313	753.1807861328125	702.491943359375	1039.8349609375	691.9677734375	700.2926635742188	1071.078491210938	785.0708618164063	414.8388977050781	1099.837280273438	712.1072387695313	102.0048446655273	1413.508544921875	732.6085815429688	115.1089935302734	1333.214721679688	823.0792236328125	940.9188842773438	1348.522827148438	755.3471069335938	851.4808349609375	1401.50634765625	638.3524780273438	40.57453918457031	1370.629516601563	662.5368041992188	61.19673156738281	1410.394775390625	646.971923828125	91.55422210693359	1369.8564453125	747.5999145507813	436.7177124023438	1406.02392578125	772.4985961914063	1003.814392089844	1380.040771484375	743.3743896484375	501.3793334960938	1401.43359375	743.1614990234375	479.5621643066406	1281.647094726563	845.2914428710938	58.99542999267578	1331.325927734375	852.331787109375	77.72641754150391	1365.153442382813	819.0903930664063	52.16373443603516	1441.640258789063	654.265869140625	974.6488647460938	1285.598876953125	700.457275390625	172.8440704345703	1416.905883789063	664.7379150390625	174.690673828125	1380.066650390625	696.4227294921875	257.443359375	1423.226684570313	658.942626953125	255.2341766357422	1384.612182617188	749.2918701171875	628.616943359375	1418.769653320313	692.1133422851563	621.0676879882813	1372.737548828125	734.1491088867188	737.2369384765625	1414.917236328125	680.8793334960938	730.9610595703125	1370.578979492188	788.0125122070313	413.091796875	1367.350952148438	
39	0.2533333333333334	705.7301025390625	102.7234268188477	1048.577392578125	723.5498046875	115.4858016967773	1129.875732421875	814.176025390625	938.492919921875	1112.264526367188	735.6036987304688	849.6650390625	1064.979370117188	632.9413452148438	40.13430023193359	1092.4853515625	656.3936157226563	64.24906158447266	1051.210815429688	641.65625	87.38899230957031	1091.964721679688	742.6741333007813	437.4480590820313	1058.150634765625	756.9345703125	1002.137634277344	1082.18994140625	745.6425170898438	493.7560119628906	1062.177368164063	736.9060668945313	479.5633544921875	1183.412963867188	842.2489624023438	60.06945037841797	1128.59033203125	853.8820190429688	71.80231475830078	1086.107177734375	814.5423583984375	44.33579635620117	1020.461059570313	653.06396484375	973.6304931640625	1185.005615234375	701.993896484375	176.7513732910156	1044.659301757813	661.0753784179688	176.5815887451172	1081.880737304688	694.7623901367188	257.0792541503906	1038.780029296875	656.1234741210938	257.5053100585938	1076.20068359375	764.3296508789063	592.8529052734375	1045.385864257813	698.52001953125	590.0424194335938	1077.549682617188	753.1951904296875	702.4888305664063	1039.83056640625	691.9711303710938	700.2958374023438	1071.069091796875	785.0526123046875	414.8433227539063	1099.836547851563	712.0986938476563	102.0053787231445	1413.510009765625	732.6197509765625	115.1105804443359	1333.214965820313	823.059326171875	940.9291381835938	1348.53515625	755.3323364257813	851.4918212890625	1401.5009765625	638.3480224609375	40.57448577880859	1370.631469726563	662.5355224609375	61.19712448120117	1410.383544921875	646.97216796875	91.54520416259766	1369.850708007813	747.5791625976563	436.7178344726563	1406.023559570313	772.4766845703125	1003.81396484375	1380.036499023438	743.3560791015625	501.3955078125	1401.443359375	743.1688232421875	479.5619201660156	1281.637451171875	845.2787475585938	58.99734878540039	1331.340576171875	852.3341064453125	77.72323608398438	1365.148559570313	819.0997314453125	52.16194915771484	1441.634887695313	654.2537841796875	974.6494750976563	1285.595947265625	700.4497680664063	172.8341522216797	1416.9013671875	664.7303466796875	174.6886444091797	1380.055297851563	696.415283203125	257.4425964355469	1423.221801757813	658.9335327148438	255.225341796875	1384.606079101563	749.2870483398438	628.6136474609375	1418.76171875	692.1058959960938	621.055908203125	1372.721435546875	734.135986328125	737.2332763671875	1414.911499023438	680.8599243164063	730.954833984375	1370.5654296875	788.009033203125	413.1017150878906	1367.349487304688	
40	0.26	705.7214965820313	102.7084579467773	1048.563110351563	723.5436401367188	115.4841918945313	1129.879516601563	814.167236328125	938.4956665039063	1112.266479492188	735.6015625	849.654052734375	1064.981201171875	632.93115234375	40.13315200805664	1092.4765625	656.3909301757813	64.24912261962891	1051.207275390625	641.6598510742188	87.38748931884766	1091.971557617188	742.6806030273438	437.4537658691406	1058.143676757813	756.9500732421875	1002.133911132813	1082.18994140625	745.63330078125	493.7653198242188	1062.175659179688	736.8992309570313	479.5657653808594	1183.417358398438	842.2420043945313	60.0685920715332	1128.596557617188	853.8805541992188	71.80757141113281	1086.10205078125	814.5347290039063	44.34079360961914	1020.44970703125	653.049560546875	973.6326904296875	1184.996215820313	701.9929809570313	176.7424011230469	1044.651000976563	661.080078125	176.5759124755859	1081.875	694.769775390625	257.0678405761719	1038.779907226563	656.1226806640625	257.5003967285156	1076.2109375	764.3251953125	592.8564453125	1045.398315429688	698.5218505859375	590.0335083007813	1077.548461914063	753.1941528320313	702.4852294921875	1039.834838867188	691.9734497070313	700.2947387695313	1071.064819335938	785.0484619140625	414.84375	1099.837524414063	712.0933227539063	102.0049285888672	1413.510375976563	732.6156616210938	115.1112213134766	1333.214965820313	823.04345703125	940.927978515625	1348.543334960938	755.3184204101563	851.4871826171875	1401.499389648438	638.342529296875	40.56964874267578	1370.63525390625	662.5386962890625	61.18992233276367	1410.387329101563	646.972900390625	91.55040740966797	1369.853271484375	747.3414306640625	436.7702026367188	1406.645385742188	772.4478149414063	1003.810485839844	1380.026123046875	743.3485107421875	501.3812561035156	1401.438598632813	743.169921875	479.555908203125	1281.637084960938	845.2833251953125	59.00012969970703	1331.3310546875	852.3301391601563	77.72886657714844	1365.150024414063	819.10107421875	52.15771102905273	1441.637451171875	654.2499389648438	974.64306640625	1285.592041015625	700.4486694335938	172.8370208740234	1416.90283203125	664.7305908203125	174.6880187988281	1380.0615234375	696.4071655273438	257.4372863769531	1423.221313476563	658.9263916015625	255.2254028320313	1384.610229492188	749.2589111328125	628.6116333007813	1418.762329101563	692.0970458984375	621.05224609375	1372.71142578125	734.1190795898438	737.2319946289063	1414.906860351563	680.8468017578125	730.96533203125	1370.54443359375	787.9949340820313	413.1042785644531	1367.357177734375	
41	0.2666666666666667	705.7341918945313	102.7259292602539	1048.571411132813	723.5450439453125	115.4798583984375	1129.8720703125	814.16845703125	938.4957275390625	1112.267456054688	735.6141357421875	849.6622924804688	1064.973754882813	632.935302734375	40.12036514282227	1092.482666015625	656.3889770507813	64.24861907958984	1051.2060546875	641.662353515625	87.38626861572266	1091.968017578125	742.671630859375	437.4505615234375	1058.143310546875	756.9553833007813	1002.136413574219	1082.18701171875	745.6202392578125	493.767822265625	1062.174682617188	736.8949584960938	479.5589294433594	1183.416748046875	842.237548828125	60.07388687133789	1128.594482421875	853.8829345703125	71.81185913085938	1086.096801757813	814.5416870117188	44.34584808349609	1020.451049804688	653.0396118164063	973.6329345703125	1184.99072265625	701.983642578125	176.7483215332031	1044.650634765625	661.07470703125	176.5757598876953	1081.87451171875	694.758056640625	257.0728149414063	1038.771118164063	656.1160888671875	257.49951171875	1076.205688476563	764.3359375	592.8601684570313	1045.399169921875	698.52587890625	590.0504760742188	1077.536010742188	753.2001953125	702.4879760742188	1039.834838867188	691.9718017578125	700.2922973632813	1071.053955078125	785.0433959960938	414.8349609375	1099.841186523438	712.1008911132813	102.0083694458008	1413.513061523438	732.619384765625	115.1086044311523	1333.214111328125	823.033203125	940.926513671875	1348.539184570313	755.3018798828125	851.4882202148438	1401.494262695313	638.3493041992188	40.57575225830078	1370.624633789063	662.5427856445313	61.18777465820313	1410.385131835938	646.9783935546875	91.54866790771484	1369.852783203125	747.5549926757813	436.7157287597656	1406.043701171875	772.4293212890625	1003.814392089844	1380.03369140625	743.3272094726563	501.3841857910156	1401.4375	743.1640625	479.5544738769531	1281.625610351563	845.277587890625	59.00385284423828	1331.318115234375	852.3262329101563	77.72631072998047	1365.144897460938	819.1011352539063	52.16232299804688	1441.642822265625	654.2439575195313	974.64697265625	1285.579956054688	700.442626953125	172.8428497314453	1416.898071289063	664.7302856445313	174.6849975585938	1380.0546875	696.4039306640625	257.4376831054688	1423.218383789063	658.919921875	255.2222747802734	1384.6044921875	749.2372436523438	628.6149291992188	1418.756958007813	692.0770874023438	621.0553588867188	1372.697265625	734.0953369140625	737.2265625	1414.898193359375	680.8344116210938	730.9586791992188	1370.527587890625	787.9896240234375	413.0973815917969	1367.360473632813	
